<svg xmlns="http://www.w3.org/2000/svg">
  <!-- Maximize -->
  <symbol
    id="maximize"
    viewBox="0 0 24 24"
  >
    <path
      fill="none"
      stroke="currentColor"
      stroke-linecap="round"
      stroke-linejoin="round"
      stroke-width="1.5"
      d="M3 10a7 7 0 1 0 14 0a7 7 0 1 0-14 0m4 0h6m-3-3v6m11 8l-6-6"
    />
  </symbol>
  <symbol
    id="maximize-2"
    viewBox="0 0 24 24"
  >
    <path
      fill="none"
      stroke="currentColor"
      stroke-linecap="round"
      stroke-linejoin="round"
      stroke-width="1.5"
      d="M5 12h14m-7-7v14"
    />
  </symbol>
  <!-- Minimize -->
  <symbol
    id="minimize"
    viewBox="0 0 24 24"
  >
    <path
      fill="none"
      stroke="currentColor"
      stroke-linecap="round"
      stroke-linejoin="round"
      stroke-width="1.5"
      d="M3 10a7 7 0 1 0 14 0a7 7 0 1 0-14 0m4 0h6m8 11l-6-6"
    />
  </symbol>
  <symbol
    id="minimize-2"
    viewBox="0 0 24 24"
  >
    <path
      fill="none"
      stroke="currentColor"
      stroke-linecap="round"
      stroke-linejoin="round"
      stroke-width="1.5"
      d="M5 12h14"
    />
  </symbol>
  <!-- Fullscreen -->
  <symbol
    id="fullscreen"
    viewBox="0 0 24 24"
  >
    <path

      fill="none"
      stroke="currentColor"
      stroke-linecap="round"
      stroke-linejoin="round"
      stroke-width="1.5"
      d="M4 8V6a2 2 0 0 1 2-2h2M4 16v2a2 2 0 0 0 2 2h2m8-16h2a2 2 0 0 1 2 2v2m-4 12h2a2 2 0 0 0 2-2v-2"
    />
  </symbol>
  <symbol
    id="fullscreen-2"
    viewBox="0 0 24 24"
  >
    <path
      fill="none"
      stroke="currentColor"
      stroke-linecap="round"
      stroke-linejoin="round"
      stroke-width="1.5"
      d="M8 3H5a2 2 0 0 0-2 2v3m18 0V5a2 2 0 0 0-2-2h-3M3 16v3a2 2 0 0 0 2 2h3m8 0h3a2 2 0 0 0 2-2v-3"
    />
  </symbol>
</svg>
